<svg class="icon" viewBox="0 0 1024 1024" xmlns="http://www.w3.org/2000/svg" fill="#FFF" width="200" height="200"><defs/><defs><style/></defs><path d="M512 42.667q87.339 0 169.003 10.496T830.848 83.84t109.312 53.675 41.173 75.818v597.334q0 42.325-41.173 75.818T830.848 940.16t-149.845 30.677T512 981.333t-169.003-10.496-149.845-30.677T83.84 886.485t-41.173-75.818V213.333q0-42.325 41.173-75.818T193.152 83.84t149.845-30.677T512 42.667zm384 767.317V615.637q-65.323 32.982-168.32 50.006T512 682.624t-215.68-16.981T128 615.637v194.987q2.005 7.339 17.835 17.664t48.512 22.315 75.989 22.016T377.344 889.3 512 895.957t134.656-6.656 107.008-16.853 75.99-22.187 48.511-22.314T896 809.94zm0-298.667V316.971q-65.323 32.981-168.32 50.005T512 383.957t-215.68-16.981T128 316.971v194.986q2.005 7.339 17.835 17.664t48.512 22.315 75.989 22.016 107.008 16.683T512 597.29t134.656-6.656 106.837-16.683 75.819-22.016 48.683-22.485T896 511.275zM512 128q-70.315 0-133.675 6.656T272 151.168t-75.819 21.675-49.152 22.314-18.986 18.176q2.688 7.68 18.986 18.176t49.152 22.315T272 275.499t106.325 16.512T512 298.667t133.675-6.656T752 275.499t75.819-21.675 49.152-22.315 18.986-18.176q-2.688-7.68-18.986-18.176t-49.152-22.314T752 151.168t-106.325-16.512T512 128z"/></svg>