<?xml version="1.0" standalone="no"?><!DOCTYPE svg PUBLIC "-//W3C//DTD SVG 1.1//EN" "http://www.w3.org/Graphics/SVG/1.1/DTD/svg11.dtd"><svg t="1570643631809" class="icon" viewBox="0 0 1024 1024" version="1.1" xmlns="http://www.w3.org/2000/svg" p-id="3590" xmlns:xlink="http://www.w3.org/1999/xlink" width="200" height="200"><defs><style type="text/css"></style></defs><path d="M512 42.666667q87.338667 0 169.002667 10.496t149.845333 30.677333 109.312 53.674667 41.173333 75.818667l0 597.333333q0 42.325333-41.173333 75.818667t-109.312 53.674667-149.845333 30.677333-169.002667 10.496-169.002667-10.496-149.845333-30.677333-109.312-53.674667-41.173333-75.818667l0-597.333333q0-42.325333 41.173333-75.818667t109.312-53.674667 149.845333-30.677333 169.002667-10.496zM896 809.984l0-194.346667q-65.322667 32.981333-168.32 50.005333t-215.68 16.981333-215.68-16.981333-168.32-50.005333l0 194.986667q2.005333 7.338667 17.834667 17.664t48.512 22.314667 75.989333 22.016 107.008 16.682667 134.656 6.656 134.656-6.656 107.008-16.853333 75.989333-22.186667 48.512-22.314667 17.834667-18.005333zM896 511.317333l0-194.346667q-65.322667 32.981333-168.32 50.005333t-215.68 16.981333-215.68-16.981333-168.32-50.005333l0 194.986667q2.005333 7.338667 17.834667 17.664t48.512 22.314667 75.989333 22.016 107.008 16.682667 134.656 6.656 134.656-6.656 106.837333-16.682667 75.818667-22.016 48.682667-22.485333 18.005333-18.176zM512 128q-70.314667 0-133.674667 6.656t-106.325333 16.512-75.818667 21.674667-49.152 22.314667-18.986667 18.176q2.688 7.68 18.986667 18.176t49.152 22.314667 75.818667 21.674667 106.325333 16.512 133.674667 6.656 133.674667-6.656 106.325333-16.512 75.818667-21.674667 49.152-22.314667 18.986667-18.176q-2.688-7.68-18.986667-18.176t-49.152-22.314667-75.818667-21.674667-106.325333-16.512-133.674667-6.656z" p-id="3591"></path></svg>
