<svg xmlns="http://www.w3.org/2000/svg" fill="#FFF" viewBox="0 0 1849.66 1303.75"><defs/><path d="M267.18 985.18v-7a50.41 50.41 0 0011.19-3.14 12 12 0 005.49-4.79 16.21 16.21 0 001.8-8.22 50.64 50.64 0 00-1.2-10.5c-.81-3.76-1.95-8-3.46-12.65l-5.56-18.43h-70l-5.1 14a134.29 134.29 0 00-5.11 16 46.09 46.09 0 00-1.2 9.86c0 5.71 1.52 9.91 4.58 12.57s7.74 4.43 14 5.29v7h-64.1v-7q8.42-1.29 14.65-9.29t12.09-22.86l62.64-158.2h23.74l51.07 159.34a149.52 149.52 0 006.38 17 26.55 26.55 0 006.69 9.14 25.25 25.25 0 0010.66 4.86v7zm-57.68-77.17h62.79l-28.54-92.17zM495.42 972.03h39.36a68 68 0 0010.81-.71 26.9 26.9 0 007.44-2.21 19 19 0 005.56-4.15 31.86 31.86 0 004.73-6.93 65.21 65.21 0 004.31-10.79q2-6.49 5-19.5h15.17l-3 57.44h-135v-7c6.21-1.52 10.37-3.22 12.47-5.07a13.52 13.52 0 004.13-7.93 92.05 92.05 0 001-15.72V825.84a97.25 97.25 0 00-.75-14.36 17.41 17.41 0 00-2.48-7 12.53 12.53 0 00-4.58-4 52.78 52.78 0 00-9.77-3.36v-7h63.24v7a55.5 55.5 0 00-9.43 3.12 13 13 0 00-4.59 3.65 16.36 16.36 0 00-2.7 7 88.76 88.76 0 00-.9 15zM707.13 985.18v-7c6.21-1.52 10.37-3.22 12.47-5.07a13.58 13.58 0 004.13-7.93 92.05 92.05 0 001-15.72V825.84a97.25 97.25 0 00-.75-14.36 17.56 17.56 0 00-2.48-7 12.53 12.53 0 00-4.58-4 52.78 52.78 0 00-9.77-3.36v-7h82.17q23.88 0 38.38 4.86t21.56 14.36q7 9.51 7.06 24.51 0 12.44-5 21.58a46.33 46.33 0 01-13.14 15.14 94.93 94.93 0 01-20.88 11.15v1.29q20.43 5.85 30.94 18.07a43.13 43.13 0 0110.52 29.08q0 19.44-9.09 31.73t-25.46 17.79q-16.38 5.5-39.66 5.5zm72-107.6q22.83 0 34.92-10.51t12.09-30.51q0-9.85-3.38-16.36a27 27 0 00-9.31-10.36 40.09 40.09 0 00-14-5.5 88.07 88.07 0 00-17.57-1.65q-5.71 0-15 .29t-14 .57v74zm-26.29 94q11 1 24.48 1 19.68 0 30.57-4.72t15.74-13.9q4.89-9.23 4.89-23.08t-5.34-22.87q-5.32-9-16.45-13.43t-30.64-4.43H752.8zM1127.94 790.12v43.12h-14.72a114.69 114.69 0 00-4.65-12.29 53.53 53.53 0 00-5-8.86 23.58 23.58 0 00-5.63-5.72 18.56 18.56 0 00-7.29-2.93 55.92 55.92 0 00-10.06-.79h-47.47v74.89h32.14q6.61 0 10.37-1.79a14.45 14.45 0 006.23-6.07q2.49-4.29 4.74-13.44h14.12v54.88h-14.09q-2.12-8.58-4.66-12.93a15.72 15.72 0 00-6.09-6.22q-3.52-1.86-10.59-1.86h-32.14v82.46h46.72a48 48 0 0011.94-1.22 19.06 19.06 0 007.88-4.14 27.43 27.43 0 005.86-7.65 63.11 63.11 0 004.28-9.79q1.72-5.07 4.74-14.79h14.87l-2.86 50.16h-139.1v-7c6.21-1.52 10.37-3.22 12.47-5.07a13.58 13.58 0 004.13-7.93 92.05 92.05 0 001-15.72V825.84a97.25 97.25 0 00-.75-14.36 17.41 17.41 0 00-2.48-7 12.53 12.53 0 00-4.58-4 52.78 52.78 0 00-9.77-3.36v-7zM1302.55 900.44v48.59a95 95 0 00.83 14.93 17.77 17.77 0 002.48 7 12.41 12.41 0 004.51 3.86 52.34 52.34 0 009.76 3.36v7h-63.39v-7c6.21-1.52 10.36-3.22 12.47-5.07a13.64 13.64 0 004.13-7.93 92.28 92.28 0 001-15.72V825.84a97.25 97.25 0 00-.75-14.36 17.41 17.41 0 00-2.48-7 12.53 12.53 0 00-4.58-4 52.62 52.62 0 00-9.76-3.36v-7h74.35q35.16 0 52.58 12.15t17.42 37.72q0 19.59-11.34 33.3t-34 21.43v1.15a44.37 44.37 0 0115.7 10.21q6.53 6.66 14.49 20.66l13.52 23.43a139.07 139.07 0 0010.07 15.72 36.34 36.34 0 008.56 8.29 29.3 29.3 0 0011.57 4v7h-41.66a167.39 167.39 0 01-10.82-16.29q-5.1-8.72-10.06-17.72l-13.22-23.86a152.85 152.85 0 00-9.84-16 29.53 29.53 0 00-7.06-7.22 20.73 20.73 0 00-6.91-2.85 56.71 56.71 0 00-11-.79zm0-97.17v84.88h17q13.06 0 21.18-1.79a40.14 40.14 0 0015-6.78 34.7 34.7 0 0011-13.94q4.13-8.93 4.13-21.93 0-13.58-4.88-22.58a31.84 31.84 0 00-14.8-13.72q-9.91-4.71-26.73-4.72-13.49 0-21.9.55zM1522.23 790.12h162.53v49.73h-14.72a132.88 132.88 0 00-6.53-19.44 38.56 38.56 0 00-6.84-10.86 21.49 21.49 0 00-7.74-5.28q-4.12-1.57-12.39-1.58h-19.08v146.34a73.17 73.17 0 001 13.43 20.77 20.77 0 003 7.93 13.46 13.46 0 005.48 4.57 52.37 52.37 0 0010.81 3.22v7h-68.64v-7q4.5-1 8-2.14a19.32 19.32 0 005.63-2.79 13.29 13.29 0 003.61-4.22 23.47 23.47 0 002.25-7 76.28 76.28 0 00.83-13V802.69h-18.93a43.82 43.82 0 00-11.64 1.29 18.78 18.78 0 00-8.49 5.36 38.82 38.82 0 00-7.14 11.57 126.49 126.49 0 00-6.08 18.94h-14.92zM254.97 1136.31v35.2h-55.65v131.87h-42.4v-290.45h105.12v35.2h-62.72v88.18zM339.77 1303.38q-51.24 0-51.24-49.35v-191.34q0-49.76 50.8-49.76h40.63q50.79 0 50.79 49.76v191.34q0 49.37-51.23 49.35zm10.16-35.14h21.64q16.77 0 16.78-17v-186.12q0-17-19-17h-19.87q-18.54 0-18.55 17v186.12q0 17 19 17zM606.09 1012.93v235.44q0 55-51.23 55h-35.78q-50.79 0-50.79-55.42v-235h42.4v236.25q0 19 18.55 19h17.22q17.24 0 17.23-19v-236.27zM733.73 1153.3v-140.37h42.4v290.45h-42.4v-57.85l-45.49-132.29v190.13h-42.4v-290.44h42.4zM815.88 1303.38v-290.45h73.75q59.63 0 59.63 55.83v192.55q0 42.08-50.79 42.07zm42.4-35.19h31.8q16.77 0 16.78-13v-186.03q0-21-19-21h-29.58zM1026.99 1303.38h-42.36v-240.69q0-49.76 50.79-49.76h31.8q50.79 0 50.79 49.76v240.69h-42.4v-106.39h-48.58zm48.58-141.58v-96.68q0-17-18.55-17h-11.48q-18.56 0-18.55 17v96.68zM1223.09 1048.13v255.25h-42.41v-255.25h-40.63v-35.2h123.67v35.2zM1288.01 1303.38v-290.45h42.4v290.45zM1419.18 1303.38q-51.24 0-51.24-49.35v-191.34q0-49.76 50.79-49.76h40.64q50.77 0 50.79 49.76v191.34q0 49.37-51.23 49.35zm10.15-35.14h21.65q16.77 0 16.78-17v-186.12q0-17-19-17h-19.88q-18.54 0-18.55 17v186.12q.01 17 19 17zM1635.63 1153.3v-140.37h42.4v290.45h-42.4v-57.85l-45.53-132.29v190.13h-42.4v-290.44h42.4zM1771.06 979.72V854.03q0-29.4-24-29.4h-21.19v-39.78h30.11q61.88 0 61.88 70.91v116.48q0 30 31.77 30v46.7q-31.77 0-31.77 30v153.94q0 70.92-61.88 70.92h-30.11v-39.78h21.19q24 0 24-29.41V1073.7q0-38.06 35.12-49.58-35.11-8.07-35.12-44.4zM43.49 1024.12q35.14 11.54 35.14 49.58v160.86q0 29.4 24 29.41h21.18v39.78H93.63q-61.87 0-61.88-70.92v-153.94q0-30-31.78-30v-46.65q31.78 0 31.78-30V855.76q0-70.9 61.88-70.91h30.1v39.78h-21.1q-24 0-24 29.4v125.69q0 36.33-35.14 44.4zM504.06 456.36h.25a1.43 1.43 0 00-.25 0zM1082.23 308.49s-8.15 17.07-2.48 29.73c0 0-68.72-90.2-79.23-82.62l21.75 104 25.63-14.75s30.94 50.43 52.5 50.53c0 0-13.77-27.87-6.78-32.41 0 0 51 33.93 89.32 32.08 0 .03-90.11-70.53-100.71-86.56z"/><path d="M1653.79 747.3h19.72l-299.8-422-12.92-18.19-57.32 109.63c-16.73-5-51-19.78-108.15-63.31-125.1-101.92-288.14-293.85-328.54-342.19L857.42-.03l-75.79 113.05-180 264.65-114.21-90.3-287.45 456.87h271.15l78.27-11.68-129.6-31c33.81-39.45 53.53-70.44 53.53-70.44-53.53-11.27-73.25-25.35-73.25-25.35 74.47-148.94 101.22-149.75 104-149.37-50.58-11.1-84.28 33.84-84.28 33.84l78.89-146.51 228.1 133.51-135.55 262.31-5.35 7.75h252.29l-5.5-4.85-46.83-80.46-56.37 31.15s42.42-75.93 84.28-87.61c0 0-45.85 2-61.8 11.68 0 0 8-52.57 65.79-75.93l-29.91-9.73s1.8-78.71 28.14-119.21l228.66 173.76s-55.75-7.19-86.74-31.82c0 0 25.35 45.81 64.8 68.35 0 0-39.45 14.09-64.8 0 0 0 57.13 42.64 141.26 48.09l-29 47.7 62.12 25.82h416l-112.84-41.26 29.58-53.53c-21.13 16.9-115.51 22.54-115.51 22.54l52.13-63.44-45.08 23.94c9.86-38 59.17-116.71 59.17-116.71-43.67 4.43-90.16 48-90.16 48l52.12-146.81-52.12 47.89 39.2-113.62zm-464.04-113.06c-21.12-88.93-8.12-132.75-8.12-132.75-17.2 33.8-92 39.65-92 39.65-59-81.46-123.24-180.52-123.24-180.52-33.81 16.9-73.25 33.81-73.25 33.81-22.54-87.34 0-149.32 0-149.32-53.51 8.45-115.51 78.88-115.51 78.88 0-11.27 73.25-180.31 73.25-180.31l-64.8 50.79 74.55-169.33c219.06 306.62 428.74 408.73 428.74 408.73v-1.56l4.47 2.75z"/></svg>