<?xml version="1.0" standalone="no"?><!DOCTYPE svg PUBLIC "-//W3C//DTD SVG 1.1//EN" "http://www.w3.org/Graphics/SVG/1.1/DTD/svg11.dtd"><svg t="1572081916416" class="icon" viewBox="0 0 1024 1024" version="1.1" xmlns="http://www.w3.org/2000/svg" p-id="2187" xmlns:xlink="http://www.w3.org/1999/xlink" width="200" height="200"><defs><style type="text/css"></style></defs><path d="M794.258286 744.594286q-30.866286 5.12-62.829714 5.12-104.009143 0-192.585143-51.419429t-139.995429-139.995429-51.419429-192.585143q0-109.714286 59.465143-203.995429-114.834286 34.304-187.684571 130.852571t-72.850286 219.428571q0 74.313143 29.110857 141.970286t77.970286 116.589714 116.589714 77.970286 141.970286 29.110857q82.285714 0 156.306286-35.108571t126.025143-98.011429zM910.262857 696.027429q-53.686857 116.004571-162.011429 185.417143t-236.251429 69.412571q-89.161143 0-170.276571-34.889143t-139.995429-93.696-93.696-139.995429-34.889143-170.276571q0-87.405714 32.841143-167.131429t89.161143-138.020571 134.582857-93.988571 165.741714-39.131429q25.161143-1.170286 34.889143 22.308571 10.313143 23.405714-8.557714 41.179429-49.152 44.544-75.117714 103.716571t-25.965714 124.854857q0 84.553143 41.691429 156.013714t113.152 113.152 156.013714 41.691429q67.437714 0 130.267429-29.110857 23.405714-10.313143 41.179429 7.460571 7.972571 7.972571 10.020571 19.456t-2.56 21.723429z" p-id="2188"></path></svg>