<svg xmlns="http://www.w3.org/2000/svg" viewBox="0 0 547.08 246"><defs><style>.a{fill:#e93f33;}.b{fill:#d34646;}.c{fill:#d31313;}.d{fill:#ec2b2b;}</style></defs><title>pitchumi_droite</title><path class="a" d="M1891,6" transform="translate(-1372.92)"/><path class="b" d="M1873,0l-2,6s-13,278-243,152-262,0-254,84c.13,1.38.26,2.71.38,4H1404c25.4-54.87,97-85.63,269.62,0h205.16c18.73-17.13,32-39,41.26-60.83V0Z" transform="translate(-1372.92)"/><path class="a" d="M1374.38,246H1374" transform="translate(-1372.92)"/><path class="c" d="M1404,246h269.62C1501,160.37,1429.36,191.13,1404,246Z" transform="translate(-1372.92)"/><path class="d" d="M1878.74,246H1920V185.17C1910.69,207,1897.47,228.87,1878.74,246Z" transform="translate(-1372.92)"/></svg>