<?xml version="1.0" standalone="no"?><!DOCTYPE svg PUBLIC "-//W3C//DTD SVG 1.1//EN" "http://www.w3.org/Graphics/SVG/1.1/DTD/svg11.dtd"><svg t="1580741765073" class="icon" viewBox="0 0 1025 1024" version="1.1" xmlns="http://www.w3.org/2000/svg" p-id="1119" xmlns:xlink="http://www.w3.org/1999/xlink" width="200.1953125" height="200"><defs><style type="text/css"></style></defs><path d="M512.656154-0.057057A511.971472 511.971472 0 0 0 0.627626 511.971472a512.028528 512.028528 0 1 0 1024.057057 0A511.971472 511.971472 0 0 0 512.656154-0.057057z m0 42.678554c258.810052 0 469.349975 210.539923 469.349975 469.349975a467.410041 467.410041 0 0 1-108.465147 299.776898c-46.843706-19.570513-157.305845-57.912743-225.659999-78.110882-5.819803-1.82582-6.732713-2.111105-6.732713-26.41734 0-20.026968 8.216192-40.225107 16.261213-57.285117 8.729704-18.543489 19.057001-49.753608 22.765699-77.768541 10.384354-12.039004 24.477406-35.831727 33.549452-81.07784 7.987965-39.882766 4.279267-54.432273-1.027024-68.06887-0.513512-1.426422-1.141138-2.852844-1.540536-4.279266-1.996991-9.35733 0.74174-57.9698 7.588566-95.627347 4.735722-25.903828-1.198195-80.90667-36.801694-126.438068-22.537471-28.813729-65.558366-64.074887-144.18276-69.038837l-43.135009 0.057057c-77.312086 4.906893-120.390037 40.16805-142.927509 68.98178-35.603499 45.531398-41.537416 100.53424-36.801694 126.381011 6.846827 37.714604 9.585557 86.327074 7.588567 95.513233a34.005906 34.005906 0 0 1-1.540536 4.450437c-5.249234 13.636597-9.014989 28.186104-1.027024 68.06887 9.072045 45.246114 23.165097 69.038837 33.606508 81.07784 3.651641 28.014933 13.978938 59.225052 22.765699 77.768541 6.333315 13.57954 9.35733 32.065972 9.35733 58.198027 0 24.249178-0.91291 24.591519-6.390372 26.303227-70.693486 20.825765-183.26673 61.564384-225.203544 79.936702a467.295927 467.295927 0 0 1-110.80448-302.401515C43.249122 253.16142 253.846102 42.621497 512.656154 42.621497zM184.978437 847.637154a2711.058116 2711.058116 0 0 1 206.774168-72.405193c36.573466-11.525492 36.573466-42.336212 36.573466-67.098903 0-20.54048-1.426422-50.780632-13.408369-76.342118a242.14944 242.14944 0 0 1-19.798741-71.092885 20.996935 20.996935 0 0 0-7.189168-14.207165c-6.04803-5.306291-18.315262-24.705633-26.189112-63.789603-6.162144-30.924834-3.537527-37.714604-1.027024-44.276146 1.084081-2.795788 2.111105-5.477461 2.966958-8.615591 5.13512-18.71466-0.570569-80.279044-6.78977-114.399064-2.681674-14.834791 0.684683-56.999833 28.471388-92.489218 24.876804-31.780688 62.534351-49.52538 110.576253-52.606452l40.453334-0.057057c49.35421 3.138129 87.011757 20.882822 111.945618 52.663509 27.729648 35.489385 31.153062 77.654427 28.414331 92.546275-6.162144 34.062963-11.92489 95.627347-6.78977 114.28495 0.855853 3.195186 1.882877 5.87686 2.966958 8.672648 2.510503 6.561542 5.13512 13.351312-1.027024 44.276146-7.816794 39.083969-20.141082 58.483312-26.189112 63.789603a21.510447 21.510447 0 0 0-7.246225 14.207165c-1.996991 23.507439-11.411378 53.519363-19.684627 71.092885-9.471444 20.084025-20.312253 46.843706-20.312253 75.429208 0 24.819747 0 55.630467 36.972865 67.213016a3148.399175 3148.399175 0 0 1 207.28768 70.864657A467.98061 467.98061 0 0 1 512.656154 981.378503a467.923553 467.923553 0 0 1-327.677717-133.741349z" fill="#ffffff" p-id="1120"></path></svg>